<svg width="182" height="34" viewBox="0 0 182 34" fill="none" xmlns="http://www.w3.org/2000/svg">
<path d="M143.478 12.3749V9.7312H131.246V12.4316L143.478 12.3749Z" fill="#FF0300"/>
<path d="M17.3588 20.3342C17.3588 21.1887 17.1983 21.9677 16.882 22.6805C16.5657 23.3887 16.1361 23.9977 15.5932 24.5075C15.0503 25.0174 14.4177 25.4092 13.6954 25.6972C12.9731 25.9805 12.2036 26.1221 11.3916 26.1221C10.2255 26.1221 9.13502 25.9143 8.1153 25.4942C7.09559 25.074 6.15613 24.3517 5.30165 23.3226L7.45438 21.151C7.60072 21.3398 7.78012 21.5475 7.99256 21.7694C8.205 21.9913 8.44577 22.199 8.7243 22.3878C9.00283 22.5767 9.31441 22.7372 9.65903 22.8647C10.0037 22.9921 10.3908 23.0582 10.8251 23.0582C11.3113 23.0582 11.7551 22.9874 12.1564 22.8458C12.5577 22.7041 12.9023 22.5106 13.1903 22.2651C13.483 22.0196 13.7096 21.7316 13.8701 21.3917C14.0306 21.0518 14.1156 20.6883 14.1156 20.2965C14.1156 19.8622 14.0211 19.4798 13.8323 19.1399C13.6435 18.8 13.3885 18.512 13.0722 18.2759C12.7559 18.0399 12.383 17.8605 11.9676 17.7378C11.5474 17.615 11.1084 17.5536 10.6504 17.5536C10.1217 17.5536 9.63071 17.6197 9.1775 17.7566C8.7243 17.8935 8.26165 18.1343 7.78484 18.4884L6.20334 16.8644L6.99645 9.57532L16.1125 9.59421V12.3559H9.45604L9.09253 15.4198C9.43243 15.2593 9.81955 15.1413 10.2586 15.0657C10.6976 14.9902 11.1131 14.9524 11.5049 14.9524C12.3594 14.9524 13.1431 15.0893 13.8606 15.3584C14.5782 15.6275 15.1967 16.0052 15.7159 16.4867C16.2352 16.9683 16.6412 17.5348 16.9339 18.191C17.2266 18.8472 17.3683 19.56 17.3683 20.3342H17.3588Z" fill="#FF0300"/>
<path d="M32.173 21.2689C32.173 22.1234 31.9936 22.8551 31.6348 23.4736C31.276 24.0873 30.8039 24.5924 30.2138 24.9843C29.6237 25.3761 28.9533 25.6688 28.2027 25.8576C27.4521 26.0465 26.6778 26.1409 25.88 26.1409C25.0822 26.1409 24.3032 26.0465 23.5479 25.8576C22.7878 25.6688 22.1174 25.3761 21.5273 24.9843C20.9372 24.5924 20.4699 24.0873 20.1158 23.4736C19.7617 22.8598 19.5871 22.1234 19.5871 21.2689C19.5871 20.8629 19.6626 20.4569 19.8089 20.0509C19.9553 19.6449 20.1583 19.2673 20.4085 18.9226C20.6587 18.578 20.9514 18.2711 21.2819 18.0115C21.6123 17.7471 21.9617 17.5488 22.3252 17.4119C21.9994 17.2514 21.6973 17.0484 21.4235 16.8029C21.1449 16.5575 20.9042 16.2836 20.6917 15.9721C20.4793 15.6605 20.3188 15.3253 20.2055 14.9665C20.0922 14.6077 20.0308 14.2395 20.0308 13.8618C20.0308 13.1159 20.2102 12.4597 20.569 11.8838C20.9278 11.3078 21.3904 10.8263 21.9617 10.4439C22.5282 10.0568 23.1655 9.7688 23.8689 9.57053C24.5723 9.37225 25.2616 9.27783 25.9414 9.27783C26.6212 9.27783 27.3199 9.37697 27.9997 9.57053C28.6842 9.7688 29.3027 10.0568 29.855 10.4439C30.4121 10.831 30.8606 11.3078 31.2052 11.8838C31.5498 12.4597 31.7245 13.1206 31.7245 13.8618C31.7245 14.2395 31.6678 14.6077 31.5498 14.9665C31.4365 15.3253 31.2713 15.6605 31.0636 15.9721C30.8558 16.2836 30.6103 16.5622 30.3318 16.8029C30.0533 17.0484 29.7511 17.2514 29.4301 17.4119C29.7936 17.5488 30.143 17.7471 30.4734 18.0115C30.8039 18.2759 31.0966 18.578 31.3468 18.9226C31.597 19.2673 31.7953 19.6449 31.9464 20.0509C32.0927 20.4569 32.1682 20.8629 32.1682 21.2689H32.173ZM28.925 20.9007C28.925 20.5749 28.8447 20.2728 28.6795 19.999C28.519 19.7205 28.3018 19.475 28.028 19.2578C27.7589 19.0406 27.4379 18.8707 27.065 18.7527C26.692 18.6299 26.2954 18.5686 25.8753 18.5686C25.4551 18.5686 25.0586 18.6299 24.6856 18.7527C24.3127 18.8754 23.9916 19.0454 23.7226 19.2578C23.4535 19.475 23.2363 19.7205 23.0711 19.999C22.9106 20.2775 22.8256 20.5797 22.8256 20.9007C22.8256 21.2217 22.9058 21.5286 23.0711 21.8118C23.2316 22.0951 23.4487 22.3453 23.7226 22.5624C23.9916 22.7796 24.3127 22.9496 24.6856 23.0723C25.0586 23.195 25.4551 23.2564 25.8753 23.2564C26.2954 23.2564 26.692 23.195 27.065 23.0723C27.4379 22.9496 27.7589 22.7796 28.028 22.5624C28.2971 22.3453 28.5143 22.0951 28.6795 21.8118C28.84 21.5286 28.925 21.2217 28.925 20.9007ZM28.4812 14.2442C28.4812 13.961 28.4151 13.6919 28.2782 13.4417C28.1413 13.1914 27.9572 12.9696 27.7212 12.7807C27.4851 12.5919 27.2113 12.4408 26.8997 12.3323C26.5881 12.2237 26.2482 12.1717 25.8847 12.1717C25.5212 12.1717 25.1813 12.2284 24.8697 12.3323C24.5582 12.4408 24.2843 12.5872 24.0483 12.7807C23.8123 12.9696 23.6234 13.1914 23.4912 13.4417C23.3543 13.6919 23.2882 13.961 23.2882 14.2442C23.2882 14.5275 23.3543 14.7966 23.4912 15.0468C23.6281 15.297 23.8123 15.5189 24.0483 15.7077C24.2843 15.8965 24.5582 16.0476 24.8697 16.1562C25.1813 16.2648 25.5212 16.3167 25.8847 16.3167C26.2482 16.3167 26.5881 16.2648 26.8997 16.1562C27.2113 16.0476 27.4851 15.9013 27.7212 15.7077C27.9572 15.5189 28.146 15.297 28.2782 15.0468C28.4151 14.7966 28.4812 14.5275 28.4812 14.2442Z" fill="#FF0300"/>
<path d="M45.3868 9.57532L38.0175 25.8152H34.5854L40.7745 12.3559H33.5893V9.57532H45.3821H45.3868Z" fill="#FF0300"/>
<path d="M56.3536 23.4026H64.4924V26.0888H53.776V9.74976H56.3536V23.4073V23.4026Z" fill="#00234D"/>
<path d="M80.0572 26.0983H83.2815L76.7903 9.73096H73.6603L67.1502 26.0983H70.3935L75.171 13.1678H75.2607L80.0572 26.0983Z" fill="#00234D"/>
<path d="M108.458 9.73096L104.153 26.0983H101.131L98.2137 14.9712H98.1287L95.2301 26.0983H92.2087L87.9033 9.73096H90.6555L93.7005 21.9345H93.7619L96.8682 9.73096H99.4789L102.585 21.9345H102.67L105.715 9.73096H108.467H108.458Z" fill="#00234D"/>
<path d="M124.538 9.73096H127.847L121.766 19.9375V26.0794H118.929V19.8431L112.938 9.73096H116.248L120.345 16.6896H120.412L124.533 9.73096H124.538Z" fill="#00234D"/>
<path d="M134.083 23.3934V19.2815H142.803V16.8785C142.803 16.8785 132.195 16.8219 131.246 16.8219V26.0749H143.704V23.3887H134.083V23.3934Z" fill="#00234D"/>
<path d="M159.34 21.184L161.006 26.0796H157.853L156.229 21.4436C155.757 20.1218 154.539 19.9613 153.637 19.9613H150.233V26.0843H147.396V9.84912H154.921C158.075 9.84912 160.327 11.7044 160.327 14.6739C160.327 16.7369 159.156 18.224 157.4 18.9652V19.0596C158.434 19.4325 159 20.1737 159.335 21.1934L159.34 21.184ZM154.629 12.5353H150.238V17.615H154.629C156.271 17.615 157.423 16.5717 157.423 15.0421C157.423 13.5125 156.276 12.5353 154.629 12.5353Z" fill="#00234D"/>
<path d="M176.571 21.3491C176.571 24.413 173.961 26.0747 170.198 26.0747C167.989 26.0747 165.128 25.173 163.461 24.092L164.542 21.8401C166.185 22.9212 168.347 23.5727 170.264 23.5727C172.068 23.5727 173.597 22.8315 173.597 21.5002C173.597 20.3955 172.629 19.744 169.835 19.135C166.119 18.323 163.976 17.1098 163.976 14.2253C163.976 11.3408 166.61 9.72156 170.373 9.72156C172.625 9.72156 174.655 10.4863 175.802 11.1378L174.99 13.5219C173.843 12.8704 172.153 12.2378 170.283 12.2378C168.008 12.2378 166.927 13.182 166.927 14.197C166.927 15.3205 167.941 15.9767 170.713 16.5621C174.589 17.3741 176.571 18.6582 176.571 21.335V21.3491Z" fill="#00234D"/>
<path d="M72.8907 26.141H77.6257L75.2605 21.0046" fill="#FF0300"/>
</svg>
